<?xml version="1.0" encoding="utf-8"?>
<!-- Generator: Adobe Illustrator 22.0.1, SVG Export Plug-In . SVG Version: 6.00 Build 0)  -->
<svg version="1.1" id="Capa_1" xmlns="http://www.w3.org/2000/svg" xmlns:xlink="http://www.w3.org/1999/xlink" x="0px" y="0px"
	 viewBox="0 0 480 480" style="enable-background:new 0 0 480 480;" xml:space="preserve">
<style type="text/css">
	.st0{fill:#FFFFFF;}
	.st1{fill:#FFC107;}
	.st2{fill:#2196F3;}
</style>
<path class="st0" d="M240,480L240,480C108,480,0,372,0,240v0C0,108,108,0,240,0h0c132,0,240,108,240,240v0C480,372,372,480,240,480z
	"/>
<g>
	<path class="st1" d="M250.7,186.7c23.5,0,42.7,19.1,42.7,42.7c0,5.9,4.8,10.7,10.7,10.7s10.7-4.8,10.7-10.7c0-35.3-28.7-64-64-64
		c-5.9,0-10.7,4.8-10.7,10.7S244.8,186.7,250.7,186.7z"/>
	<path class="st1" d="M250.7,144c47.1,0,85.3,38.3,85.3,85.3c0,5.9,4.8,10.7,10.7,10.7s10.7-4.8,10.7-10.7
		c0-58.8-47.9-106.7-106.7-106.7c-5.9,0-10.7,4.8-10.7,10.7C240,139.2,244.8,144,250.7,144z"/>
	<path class="st1" d="M250.7,80c-5.9,0-10.7,4.8-10.7,10.7s4.8,10.7,10.7,10.7c70.6,0,128,57.4,128,128c0,5.9,4.8,10.7,10.7,10.7
		s10.7-4.8,10.7-10.7C400,147,333,80,250.7,80z"/>
</g>
<path class="st2" d="M368,314.7c-31,0-60.5-6.7-87.7-20c-2.6-1.3-5.5-1.4-8.2-0.5c-2.7,0.9-4.9,2.9-6.1,5.4l-16.8,34.7
	c-43.4-24.2-79.3-60.1-103.5-103.5l34.7-16.8c2.6-1.2,4.5-3.4,5.4-6.1c0.9-2.7,0.7-5.6-0.5-8.2c-13.3-27.2-20-56.7-20-87.7
	c0-5.9-4.8-10.7-10.7-10.7h-64c-5.9,0-10.7,4.8-10.7,10.7c0,158.8,129.2,288,288,288c5.9,0,10.7-4.8,10.7-10.7v-64
	C378.7,319.4,373.9,314.7,368,314.7z"/>
</svg>
